<svg preserveAspectRatio="none" width="100%" height="100%" overflow="visible" style="display: block;" viewBox="0 0 131.689 26.3367" fill="none" xmlns="http://www.w3.org/2000/svg">
<g id="Group">
<path id="Vector" d="M111.851 12.0392C111.851 8.10003 110.152 5.3983 104.042 5.3983C101 5.3983 98.1232 6.05826 95.9319 7.38077L97.4942 10.6058C99.768 9.50503 101.33 9.03583 103.578 9.03583C106.373 9.03583 107.195 9.72416 107.195 11.4875C98.2882 11.6808 95.6045 13.1683 95.6045 16.3908C95.6045 19.3942 97.9892 21.1008 101.606 21.1008C103.937 21.1008 105.88 20.1083 107.389 18.595C107.389 19.255 107.471 20.165 107.636 20.8275H112.24C111.967 19.9175 111.856 18.6517 111.856 17.2184V12.0392H111.851ZM107.193 15.8958C105.246 17.1616 103.741 17.6875 102.233 17.6875C100.807 17.6875 100.204 17.2751 100.204 16.3367C100.204 15.125 101.299 14.3516 107.19 13.9959V15.8958H107.193Z" fill="var(--fill-0, white)"/>
<path id="Vector_2" d="M36.3882 13.2508C36.3882 8.31915 32.9905 5.3983 27.3447 5.3983C21.6989 5.3983 18.3011 8.31915 18.3011 13.2508C18.3011 18.1825 21.6989 21.1034 27.3447 21.1034C32.9905 21.1034 36.3882 18.1825 36.3882 13.2508ZM23.0704 13.2508C23.0704 10.4692 24.5218 9.03583 27.3447 9.03583C30.1676 9.03583 31.619 10.4692 31.619 13.2508C31.619 16.0325 30.1676 17.4658 27.3447 17.4658C24.5218 17.4658 23.0704 16.0325 23.0704 13.2508Z" fill="var(--fill-0, white)"/>
<path id="Vector_3" d="M125.798 5.40088C123.359 5.40088 121.825 6.0892 119.907 7.57669V5.67672H115.249V20.8301H119.961V10.8301C121.222 9.78345 122.73 9.14927 124.318 9.14927C126.265 9.14927 126.976 10.1959 126.976 12.4001V20.8301H131.689V11.9876C131.689 7.57927 130.183 5.40345 125.798 5.40345V5.40088Z" fill="var(--fill-0, white)"/>
<path id="Vector_4" d="M5.04254 15.0967H11.0982C11.8665 15.0967 12.2764 15.4834 12.2764 16.1433C12.2764 16.8033 11.8665 17.19 11.0982 17.19H0.657386V20.8275H11.454C14.4676 20.8275 16.4965 18.8992 16.4965 16.0067C16.4965 13.1142 14.4676 11.3509 11.454 11.3509H5.3983C4.63006 11.3509 4.22016 10.9925 4.22016 10.3326C4.22016 9.6726 4.63264 9.31426 5.3983 9.31426H15.7283V5.67672H5.04254C2.0263 5.67414 0 7.60248 0 10.4976C0 13.3926 2.0263 15.0993 5.04254 15.0993V15.0967Z" fill="var(--fill-0, white)"/>
<path id="Vector_5" d="M54.8286 14.5733C54.8286 18.8167 56.61 21.0209 61.5133 21.0209C62.9105 21.0209 64.0887 20.7167 65.0761 20.2501V16.9992C63.9521 17.2209 63.0498 17.3292 62.0624 17.3292C60.4176 17.3292 59.5411 16.6692 59.5411 14.8234V9.31426H65.0761V5.67672H59.5411V1.56999H54.8286V5.67414H52.4182V9.31168H54.8286V14.5733Z" fill="var(--fill-0, white)"/>
<path id="Vector_6" d="M92.9157 0.164991H88.2032V20.8275H92.9157V0.164991Z" fill="var(--fill-0, white)"/>
<path id="Vector_7" d="M85.5452 13.2508C85.5452 8.43001 82.9982 5.3983 78.3114 5.3983C76.2284 5.3983 74.612 5.97577 72.8306 7.49162V5.67414H68.1722V26.3367H72.8848V19.505C74.3362 20.6084 75.7902 21.1034 77.7623 21.1034C82.4749 21.1034 85.5427 18.1825 85.5427 13.2508H85.5452ZM76.5842 17.4658C75.2694 17.4658 73.9804 16.9966 72.8848 16.1433V10.7425C73.8721 9.74993 75.406 9.03583 77.1591 9.03583C79.4612 9.03583 80.776 10.5233 80.776 13.1967C80.776 16.1176 79.0487 17.4658 76.5842 17.4658Z" fill="var(--fill-0, white)"/>
<path id="Vector_8" d="M40.3893 5.15081V5.67414H37.9789V9.31168H40.3893V20.8275H45.1018V9.31168H50.1444V5.67414H45.1018V5.34416C45.1018 4.16087 45.7309 3.49832 47.4581 3.49832C48.5821 3.49832 49.6236 3.60918 50.5543 3.80253V0.577468C49.5953 0.219129 48.3888 0 47.1565 0C42.4981 0 40.3893 1.98505 40.3893 5.15081Z" fill="var(--fill-0, white)"/>
<path id="Vector_9" d="M0.587265 26.3362V26.3341H0.585202L0.587265 26.3362Z" fill="var(--fill-0, white)"/>
<path id="Vector_10" d="M4.68162 25.1379V22.2428H1.8381C1.08791 22.2428 0.585202 22.7223 0.585202 23.4416V26.3367H3.42872C4.17891 26.3367 4.68162 25.8572 4.68162 25.1379Z" fill="var(--fill-0, white)"/>
</g>
</svg>
