<svg preserveAspectRatio="none" width="100%" height="100%" overflow="visible" style="display: block;" viewBox="0 0 48.1224 60.0001" fill="none" xmlns="http://www.w3.org/2000/svg">
<g id="Group 1">
<path id="uuid-bf7bf024-64ea-4894-b680-881e176c562a" fill-rule="evenodd" clip-rule="evenodd" d="M1.91406 44.1981H33.413C42.2054 44.1981 48.1224 38.5696 48.1224 30.1355C48.1224 21.7014 42.2054 16.5535 33.413 16.5535H15.7495C13.512 16.5535 12.3146 15.5047 12.3146 13.5819C12.3146 11.6591 13.512 10.6103 15.7495 10.6103H45.8849V0H14.7094C5.91697 0 0 5.62855 0 14.0626C0 22.4967 5.91697 27.4873 14.7094 27.4873H32.3817C34.6191 27.4873 35.8165 28.6147 35.8165 30.5463C35.8165 32.4778 34.6191 33.6052 32.3817 33.6052H1.91406V44.2156V44.1981Z" fill="var(--fill-0, #212121)"/>
<path id="Vector" d="M5.41128 48.1137H13.8017V56.5041C13.8017 58.4356 12.2372 60.0001 10.3057 60.0001H1.91528V51.6097C1.91528 49.6782 3.47974 48.1137 5.41128 48.1137Z" fill="var(--fill-0, #212121)"/>
</g>
</svg>
