<svg preserveAspectRatio="none" width="100%" height="100%" overflow="visible" style="display: block;" viewBox="0 0 40.0036 40" fill="none" xmlns="http://www.w3.org/2000/svg">
<g id="Group">
<path id="Vector" d="M38.5244 0H11.5573C5.17368 0 0 5.17368 0 11.5573V31.2791H8.09981V40H28.4463C34.8299 40 40.0036 34.8263 40.0036 28.4427V1.48281C40.0036 0.664213 39.3394 0 38.5208 0H38.5244ZM26.8127 25.7284C26.8127 26.3244 26.328 26.8091 25.732 26.8091H13.1981V14.2752C13.1981 13.6792 13.6828 13.1945 14.2788 13.1945H26.8127V25.7284Z" fill="var(--fill-0, #0059DB)"/>
<path id="Vector_2" d="M31.9071 6.59546H11.557C8.81757 6.59546 6.59515 8.81788 6.59515 11.5573V33.4045H28.4424C31.1818 33.4045 33.4042 31.1821 33.4042 28.4427V8.09622C33.4042 7.27044 32.7328 6.59905 31.9071 6.59905V6.59546ZM26.8088 25.7284C26.8088 26.3244 26.3241 26.8091 25.7281 26.8091H13.1942V14.2752C13.1942 13.6792 13.6789 13.1945 14.2749 13.1945H26.8088V25.7284Z" fill="var(--fill-0, #3399FF)"/>
<path id="Vector_3" d="M25.6029 33.3902V26.8091H13.1947V33.3902H25.6029Z" fill="var(--fill-0, #3399FF)"/>
<path id="Vector_4" d="M6.59546 26.8091H0V33.4081H6.59546V39.9713H13.1945V26.8091H6.59546Z" fill="var(--fill-0, #3399FF)"/>
</g>
</svg>
