<svg preserveAspectRatio="none" width="100%" height="100%" overflow="visible" style="display: block;" viewBox="0 0 108.068 40" fill="none" xmlns="http://www.w3.org/2000/svg">
<g id="Group 16">
<path id="Vector" d="M38.5165 0H11.5563C5.17189 0 0 5.17528 0 11.5563V31.2786H8.10161V40H28.4437C34.8281 40 40 34.8247 40 28.4437V1.4801C40 0.660457 39.3362 0 38.5199 0H38.5165ZM26.8078 25.7274C26.8078 26.3235 26.3235 26.8078 25.7274 26.8078H13.1922V14.2727C13.1922 13.6765 13.6765 13.1922 14.2727 13.1922H26.8078V25.7274Z" fill="var(--fill-0, #04818A)"/>
<path id="Vector_2" d="M31.9052 6.59442H11.5563C8.81626 6.59442 6.59441 8.81627 6.59441 11.5563V26.8044H0V33.4022H6.5978V39.9661H13.1956V33.4022H28.4437C31.1837 33.4022 33.4056 31.1804 33.4056 28.4403V8.09146C33.4056 7.26504 32.735 6.59442 31.9086 6.59442H31.9052ZM26.8078 25.7274C26.8078 26.3235 26.3235 26.8078 25.7274 26.8078H13.1922V14.2727C13.1922 13.6766 13.6765 13.1922 14.2727 13.1922H26.8078V25.7274Z" fill="var(--fill-0, #00BEBE)"/>
<path id="Vector_3" d="M25.5957 33.3887V26.8078H13.1893V33.3887H25.5957Z" fill="var(--fill-0, #00BEBE)"/>
<path id="Vector_4" d="M51.4277 31.4276V27.1499H52.1254V31.4276H51.4277ZM52.0103 30.0356V29.4225H52.8943C53.0806 29.4225 53.233 29.3853 53.3583 29.3141C53.4836 29.243 53.5751 29.1448 53.6394 29.0161C53.7072 28.8908 53.7376 28.7485 53.7376 28.5893C53.7376 28.4301 53.7038 28.2811 53.6394 28.1558C53.5751 28.0305 53.4802 27.9323 53.3583 27.8611C53.2364 27.79 53.0806 27.7561 52.8943 27.7561H52.0103V27.1465H52.813C53.1652 27.1465 53.4633 27.2041 53.7072 27.3192C53.951 27.4344 54.1339 27.5936 54.2592 27.8036C54.3846 28.0135 54.4489 28.2574 54.4489 28.5453V28.6401C54.4489 28.9246 54.3846 29.1685 54.2592 29.3785C54.1339 29.5885 53.9476 29.7511 53.7072 29.8628C53.4633 29.978 53.1652 30.0356 52.813 30.0356H52.0103Z" fill="var(--fill-0, white)"/>
<path id="Vector_5" d="M55.4414 31.4276V27.1498H56.1391V31.4276H55.4414ZM55.9122 29.9509V29.3615H57.0197C57.1857 29.3615 57.3313 29.3277 57.4499 29.2599C57.5684 29.1922 57.6633 29.0973 57.7276 28.9788C57.792 28.8603 57.8224 28.718 57.8224 28.5588C57.8224 28.3996 57.792 28.2642 57.7276 28.1456C57.6633 28.0271 57.5718 27.9288 57.4499 27.8611C57.3279 27.79 57.1857 27.7561 57.0197 27.7561H55.9122V27.1498H56.9249C57.25 27.1498 57.5345 27.2006 57.775 27.2989C58.0155 27.3971 58.2018 27.5461 58.3339 27.7426C58.466 27.939 58.5303 28.1964 58.5303 28.5046V28.5995C58.5303 28.9111 58.4626 29.1651 58.3305 29.3615C58.195 29.558 58.0087 29.707 57.7716 29.8052C57.5312 29.9034 57.25 29.9509 56.9249 29.9509H55.9122ZM58.0494 31.4276L56.698 29.558H57.4905L58.8826 31.4276H58.0494Z" fill="var(--fill-0, white)"/>
<path id="Vector_6" d="M61.6925 31.5326C61.3098 31.5326 60.9779 31.4649 60.7002 31.3328C60.4224 31.2007 60.1921 31.0212 60.0092 30.801C59.8263 30.5809 59.6909 30.3404 59.6028 30.0864C59.5147 29.8324 59.4707 29.5885 59.4707 29.3548V29.2261C59.4707 28.9687 59.5147 28.7147 59.6062 28.4573C59.6976 28.1998 59.8365 27.9661 60.0194 27.7562C60.2023 27.5462 60.436 27.3734 60.7103 27.2481C60.9847 27.1228 61.3132 27.0551 61.6858 27.0551C62.0583 27.0551 62.3835 27.1194 62.6578 27.2481C62.9322 27.3768 63.1659 27.5462 63.3522 27.7562C63.5384 27.9661 63.6773 28.2032 63.7688 28.4573C63.8602 28.7147 63.9042 28.9687 63.9042 29.2261V29.3548C63.9042 29.5885 63.8602 29.8324 63.7688 30.0864C63.6807 30.3404 63.5452 30.5775 63.3657 30.801C63.1862 31.0212 62.9559 31.2007 62.6748 31.3328C62.3936 31.4649 62.0651 31.5326 61.6858 31.5326H61.6925ZM61.6925 30.8857C61.9262 30.8857 62.1362 30.8417 62.3225 30.757C62.5088 30.6723 62.668 30.5538 62.8001 30.4081C62.9322 30.2625 63.0304 30.0932 63.1015 29.9001C63.1693 29.7104 63.2031 29.5072 63.2031 29.2938C63.2031 29.0703 63.1693 28.8603 63.0981 28.6672C63.027 28.4742 62.9288 28.3048 62.8001 28.1592C62.6714 28.0136 62.5122 27.9018 62.3259 27.8205C62.1396 27.7392 61.9296 27.6986 61.6959 27.6986C61.4622 27.6986 61.2522 27.7392 61.066 27.8205C60.8797 27.9018 60.7205 28.017 60.5884 28.1592C60.4563 28.3048 60.3547 28.4742 60.2903 28.6672C60.2226 28.8603 60.1887 29.0669 60.1887 29.2938C60.1887 29.5208 60.2226 29.7104 60.2903 29.9001C60.3581 30.0898 60.4597 30.2591 60.5884 30.4081C60.7171 30.5572 60.8797 30.6723 61.066 30.757C61.2522 30.8417 61.4622 30.8857 61.6959 30.8857H61.6925Z" fill="var(--fill-0, white)"/>
<path id="Vector_7" d="M66.8934 31.5326C66.5039 31.5326 66.1754 31.4649 65.901 31.3328C65.6267 31.2007 65.4065 31.0212 65.2372 30.8044C65.0679 30.5843 64.9425 30.3472 64.8646 30.0932C64.7867 29.8391 64.7461 29.5919 64.7461 29.3582V29.2295C64.7461 28.9687 64.7867 28.7113 64.868 28.4539C64.9493 28.1965 65.0746 27.9661 65.244 27.7562C65.4133 27.5462 65.6335 27.3768 65.901 27.2481C66.1686 27.1194 66.4904 27.0551 66.8596 27.0551C67.2287 27.0551 67.5742 27.1228 67.8553 27.2583C68.1331 27.3937 68.3566 27.5834 68.5226 27.8273C68.6885 28.0711 68.7867 28.3556 68.8172 28.6876H68.1127C68.0823 28.4708 68.0077 28.2879 67.896 28.1423C67.7842 27.9966 67.6352 27.8882 67.459 27.8137C67.2829 27.7392 67.0831 27.702 66.8629 27.702C66.6428 27.702 66.4294 27.7426 66.2533 27.8239C66.0772 27.9052 65.9315 28.017 65.813 28.1626C65.6944 28.3082 65.6098 28.4742 65.5488 28.6672C65.4878 28.8603 65.4574 29.0703 65.4574 29.3006C65.4574 29.5309 65.4878 29.724 65.5488 29.9136C65.6098 30.1033 65.6978 30.2761 65.8198 30.4217C65.9417 30.5707 66.0907 30.6825 66.2702 30.7638C66.4497 30.8451 66.6597 30.8857 66.8968 30.8857C67.2389 30.8857 67.5268 30.801 67.7571 30.6317C67.9874 30.4623 68.1331 30.2219 68.1839 29.9069H68.8951C68.8579 30.2049 68.7563 30.4793 68.5937 30.7265C68.4311 30.9738 68.2076 31.1702 67.9231 31.3159C67.6386 31.4615 67.2965 31.536 66.8968 31.536L66.8934 31.5326Z" fill="var(--fill-0, white)"/>
<path id="Vector_8" d="M71.6032 31.5326C71.2103 31.5326 70.8817 31.4581 70.6176 31.3091C70.3534 31.16 70.1502 30.95 70.0113 30.6757C69.8724 30.4047 69.8047 30.0864 69.8047 29.7274V27.177H70.5024V29.7849C70.5024 30.0017 70.5464 30.1948 70.6311 30.3607C70.7158 30.5267 70.8411 30.6554 71.0037 30.7468C71.1662 30.8383 71.3661 30.8823 71.6032 30.8823C71.8402 30.8823 72.0401 30.8383 72.1993 30.7468C72.3585 30.6554 72.4838 30.5301 72.5684 30.3641C72.6531 30.1981 72.6971 30.0017 72.6971 29.7815V27.1736H73.3949V29.724C73.3949 30.0864 73.3271 30.4014 73.1916 30.6723C73.0562 30.9433 72.853 31.1533 72.5888 31.3057C72.3212 31.4547 71.9927 31.5292 71.6032 31.5292V31.5326Z" fill="var(--fill-0, white)"/>
<path id="Vector_9" d="M74.6895 31.4276V27.1498H75.3872V31.4276H74.6895ZM75.1602 29.9509V29.3615H76.2678C76.4337 29.3615 76.5794 29.3277 76.6979 29.2599C76.8165 29.1922 76.9113 29.0973 76.9757 28.9788C77.04 28.8603 77.0705 28.718 77.0705 28.5588C77.0705 28.3996 77.04 28.2642 76.9757 28.1456C76.9113 28.0271 76.8199 27.9288 76.6979 27.8611C76.576 27.79 76.4337 27.7561 76.2678 27.7561H75.1602V27.1498H76.1729C76.4981 27.1498 76.7826 27.2006 77.0231 27.2989C77.2635 27.3971 77.4498 27.5461 77.5819 27.7426C77.714 27.939 77.7784 28.1964 77.7784 28.5046V28.5995C77.7784 28.9111 77.7106 29.1651 77.5785 29.3615C77.4431 29.558 77.2568 29.707 77.0197 29.8052C76.7792 29.9034 76.4981 29.9509 76.1729 29.9509H75.1602ZM77.2974 31.4276L75.946 29.558H76.7386L78.1306 31.4276H77.2974Z" fill="var(--fill-0, white)"/>
<path id="Vector_10" d="M78.6191 31.4276L80.1094 27.1769H81.2677L82.8054 31.4276H82.084L80.7394 27.6443L81.0239 27.7798H80.3194L80.6208 27.6443L79.3169 31.4276H78.6191ZM79.5844 30.2286L79.8046 29.6223H81.5861L81.813 30.2286H79.5844Z" fill="var(--fill-0, white)"/>
<path id="Vector_11" d="M83.7422 31.4513V27.1498H84.4399V31.4513H83.7422ZM84.3247 31.4513V30.8044H85.2968C85.5339 30.8044 85.7439 30.7671 85.9302 30.6926C86.1164 30.6181 86.2756 30.5097 86.4077 30.3742C86.5398 30.2388 86.638 30.0796 86.7092 29.8933C86.7769 29.7104 86.8108 29.5106 86.8108 29.2972C86.8108 29.0669 86.7769 28.8636 86.7092 28.6807C86.6414 28.4979 86.5398 28.3421 86.4077 28.21C86.2756 28.0779 86.1164 27.9763 85.9302 27.9051C85.7439 27.834 85.5305 27.7968 85.2968 27.7968H84.3247V27.1498H85.2392C85.6219 27.1498 85.9573 27.2074 86.2451 27.326C86.5297 27.4411 86.7667 27.6003 86.9598 27.7968C87.1495 27.9932 87.2917 28.2167 87.3832 28.4674C87.478 28.7146 87.522 28.972 87.522 29.2362V29.3649C87.522 29.6122 87.4746 29.8628 87.3832 30.1134C87.2917 30.3641 87.1495 30.5876 86.9598 30.7874C86.7701 30.9873 86.533 31.1498 86.2451 31.2718C85.9606 31.3937 85.6253 31.4547 85.2392 31.4547H84.3247V31.4513Z" fill="var(--fill-0, white)"/>
<path id="Vector_12" d="M90.5129 31.5326C90.1301 31.5326 89.7982 31.4649 89.5205 31.3328C89.2428 31.1973 89.0124 31.0212 88.8295 30.801C88.6466 30.5809 88.5112 30.3404 88.4231 30.0864C88.335 29.8324 88.291 29.5885 88.291 29.3548V29.2261C88.291 28.9687 88.335 28.7147 88.4265 28.4573C88.5179 28.1998 88.6568 27.9661 88.8397 27.7562C89.0226 27.5462 89.2563 27.3734 89.5306 27.2481C89.8084 27.1194 90.1335 27.0551 90.5061 27.0551C90.8787 27.0551 91.2038 27.1194 91.4781 27.2481C91.7525 27.3768 91.9862 27.5462 92.1725 27.7562C92.3588 27.9661 92.4976 28.2032 92.5891 28.4573C92.6805 28.7147 92.7245 28.9687 92.7245 29.2261V29.3548C92.7245 29.5885 92.6805 29.8324 92.5891 30.0864C92.501 30.3404 92.3655 30.5775 92.186 30.801C92.0065 31.0212 91.7762 31.2007 91.4951 31.3328C91.214 31.4683 90.8854 31.5326 90.5061 31.5326H90.5129ZM90.5129 30.8857C90.7466 30.8857 90.9565 30.8417 91.1428 30.757C91.3291 30.6723 91.4883 30.5538 91.6204 30.4081C91.7525 30.2591 91.8507 30.0932 91.9184 29.9001C91.9862 29.7104 92.0201 29.5072 92.0201 29.2938C92.0201 29.0703 91.9862 28.8603 91.9151 28.6672C91.8439 28.4742 91.7457 28.3048 91.6136 28.1592C91.4849 28.0136 91.3257 27.9018 91.1395 27.8205C90.9532 27.7392 90.7432 27.6986 90.5095 27.6986C90.2758 27.6986 90.0658 27.7392 89.8795 27.8205C89.6932 27.9018 89.534 28.017 89.4019 28.1592C89.2698 28.3048 89.1716 28.4742 89.1039 28.6672C89.0361 28.8603 89.0023 29.0669 89.0023 29.2938C89.0023 29.5208 89.0361 29.7104 89.1039 29.9001C89.1716 30.0898 89.2732 30.2591 89.4019 30.4081C89.534 30.5572 89.6932 30.6723 89.8795 30.757C90.0658 30.8417 90.2758 30.8857 90.5095 30.8857H90.5129Z" fill="var(--fill-0, white)"/>
<path id="Vector_13" d="M93.832 31.4276V27.1498H94.5297V31.4276H93.832ZM94.3028 29.9509V29.3615H95.4104C95.5763 29.3615 95.722 29.3277 95.8405 29.2599C95.9591 29.1922 96.0539 29.0973 96.1182 28.9788C96.1826 28.8603 96.2131 28.718 96.2131 28.5588C96.2131 28.3996 96.1792 28.2642 96.1182 28.1456C96.0573 28.0271 95.9624 27.9288 95.8405 27.8611C95.7186 27.79 95.5763 27.7561 95.4104 27.7561H94.3028V27.1498H95.3155C95.6407 27.1498 95.9252 27.2006 96.1657 27.2989C96.4061 27.3971 96.5924 27.5461 96.7245 27.7426C96.8566 27.939 96.9209 28.1964 96.9209 28.5046V28.5995C96.9209 28.9111 96.8532 29.1651 96.7211 29.3615C96.5856 29.558 96.3993 29.707 96.1623 29.8052C95.9218 29.9034 95.6407 29.9509 95.3155 29.9509H94.3028ZM96.44 31.4276L95.0886 29.558H95.8811L97.2732 31.4276H96.44Z" fill="var(--fill-0, white)"/>
<path id="Vector_14" d="M98.2129 31.4276V27.1769H98.9106V31.4276H98.2129Z" fill="var(--fill-0, white)"/>
<path id="Vector_15" d="M99.8574 31.4276L101.348 27.1769H102.506L104.044 31.4276H103.322L101.978 27.6443L102.262 27.7798H101.558L101.859 27.6443L100.555 31.4276H99.8574ZM100.823 30.2286L101.043 29.6223H102.824L103.051 30.2286H100.823Z" fill="var(--fill-0, white)"/>
<path id="Vector_16" d="M106.368 31.5326C106.002 31.5326 105.694 31.475 105.44 31.3565C105.186 31.2379 104.993 31.0753 104.861 30.8687C104.728 30.6621 104.664 30.425 104.664 30.1609H105.352C105.352 30.2828 105.385 30.4013 105.45 30.5165C105.514 30.6317 105.623 30.7299 105.772 30.8044C105.921 30.8789 106.12 30.9195 106.371 30.9195C106.601 30.9195 106.791 30.8857 106.94 30.8213C107.089 30.757 107.201 30.6689 107.272 30.5605C107.343 30.4521 107.38 30.3302 107.38 30.1981C107.38 30.0355 107.309 29.9035 107.17 29.7985C107.032 29.6935 106.822 29.6325 106.54 29.6088L106.117 29.5681C105.724 29.5377 105.413 29.4157 105.179 29.2057C104.945 28.9958 104.83 28.7146 104.83 28.3692C104.83 28.105 104.894 27.8747 105.02 27.6816C105.145 27.4886 105.325 27.3361 105.551 27.2244C105.782 27.1126 106.046 27.0584 106.351 27.0584C106.656 27.0584 106.93 27.1126 107.16 27.2244C107.391 27.3361 107.567 27.4919 107.692 27.6918C107.817 27.8916 107.882 28.1287 107.882 28.4064H107.194C107.194 28.2811 107.164 28.1659 107.103 28.0542C107.042 27.9424 106.95 27.8543 106.825 27.7832C106.7 27.7121 106.54 27.6782 106.347 27.6782C106.154 27.6782 106.005 27.7121 105.883 27.7764C105.761 27.8442 105.67 27.9289 105.606 28.0339C105.541 28.1389 105.514 28.2506 105.514 28.3726C105.514 28.5148 105.568 28.6435 105.677 28.7553C105.785 28.867 105.951 28.9314 106.178 28.9517L106.598 28.9856C106.896 29.0093 107.157 29.0703 107.374 29.1753C107.59 29.2803 107.763 29.4157 107.885 29.5851C108.007 29.7544 108.068 29.961 108.068 30.2015C108.068 30.4657 107.997 30.6994 107.855 30.8992C107.712 31.1024 107.516 31.2582 107.262 31.37C107.008 31.4818 106.71 31.5394 106.368 31.5394V31.5326Z" fill="var(--fill-0, white)"/>
<path id="Vector_17" d="M51.2339 20.1355H58.8105C60.2195 20.1355 60.8731 19.8104 60.8731 18.8891C60.8731 17.8866 59.9756 17.4801 58.5869 17.2363L55.9519 16.7655C53.073 16.254 51.3964 15.1533 51.3964 12.5386C51.3964 9.92382 53.2355 8.59613 56.6056 8.59613H62.7529L63.1627 11.3531H56.7275C55.3185 11.3531 54.6648 11.6579 54.6648 12.4776C54.6648 13.4158 55.5624 13.785 56.951 14.0288L59.6674 14.5199C62.6073 15.0517 64.1416 16.1321 64.1416 18.8281C64.1416 21.5242 62.3024 22.8925 58.9324 22.8925H51.6606L51.2305 20.1355H51.2339Z" fill="var(--fill-0, white)"/>
<path id="Vector_18" d="M75.8447 19.5225H69.2876L68.0005 22.8925H64.5898L70.2664 8.59613H74.9031L80.539 22.8925H77.1284L75.8413 19.5225H75.8447ZM74.8049 16.7655L72.7016 11.2312H72.4781L70.3544 16.7655H74.8083H74.8049Z" fill="var(--fill-0, white)"/>
<path id="Vector_19" d="M91.57 16.6435C91.57 20.7079 89.1178 22.8925 85.3414 22.8925H81.277L80.8672 20.1355H85.3414C87.2414 20.1355 88.3828 19.177 88.3828 16.6435V11.3531H81.7444V8.59613H91.5666V16.6435H91.57Z" fill="var(--fill-0, white)"/>
</g>
</svg>
