<svg preserveAspectRatio="none" width="100%" height="100%" overflow="visible" style="display: block;" viewBox="0 0 92.9142 40" fill="none" xmlns="http://www.w3.org/2000/svg">
<g id="Group 13">
<path id="Vector" d="M38.5165 0H11.5563C5.17189 0 0 5.17528 0 11.5563V31.2786H8.10161V40H28.4437C34.8281 40 40 34.8247 40 28.4437V1.4801C40 0.660457 39.3362 0 38.5199 0H38.5165ZM26.8078 25.7274C26.8078 26.3235 26.3235 26.8078 25.7274 26.8078H13.1922V14.2727C13.1922 13.6765 13.6765 13.1922 14.2727 13.1922H26.8078V25.7274Z" fill="var(--fill-0, #04818A)"/>
<path id="Vector_2" d="M31.9052 6.59442H11.5563C8.81626 6.59442 6.59441 8.81627 6.59441 11.5563V26.8044H0V33.4022H6.5978V39.9661H13.1956V33.4022H28.4437C31.1837 33.4022 33.4056 31.1804 33.4056 28.4403V8.09146C33.4056 7.26504 32.735 6.59442 31.9086 6.59442H31.9052ZM26.8078 25.7274C26.8078 26.3235 26.3235 26.8078 25.7273 26.8078H13.1922V14.2727C13.1922 13.6766 13.6765 13.1922 14.2726 13.1922H26.8078V25.7274Z" fill="var(--fill-0, #00BEBE)"/>
<path id="Vector_3" d="M25.5957 33.3887V26.8078H13.1893V33.3887H25.5957Z" fill="var(--fill-0, #00BEBE)"/>
<path id="Vector_4" d="M51.4277 27.8578V23.6071H52.3693L53.5344 26.293H53.6326L54.7842 23.6071H55.7393V27.8578H55.0484V24.2303L55.1195 24.2439L53.9442 26.9873H53.1754L51.9866 24.2439L52.0679 24.2303V27.8578H51.4277Z" fill="var(--fill-0, #181A29)"/>
<path id="Vector_5" d="M57.127 27.8578V23.6071H57.8247V27.8578H57.127Z" fill="var(--fill-0, #181A29)"/>
<path id="Vector_6" d="M59.2148 27.8578V23.6071H60.3563L62.3308 27.2583H62.5239L62.4088 27.3633V23.6071H63.0726V27.8578H61.921L59.9464 24.2066H59.7534L59.8685 24.1016V27.8578H59.2182H59.2148Z" fill="var(--fill-0, #181A29)"/>
<path id="Vector_7" d="M64.4551 27.8578V23.6071H65.1528V27.8578H64.4551Z" fill="var(--fill-0, #181A29)"/>
<path id="Vector_8" d="M67.9517 27.9627C67.5859 27.9627 67.2777 27.9018 67.0237 27.7832C66.7696 27.6647 66.5766 27.5021 66.4445 27.2955C66.3124 27.0889 66.248 26.8518 66.248 26.5876H66.9356C66.9356 26.7096 66.9695 26.8281 67.0338 26.9433C67.0982 27.0584 67.2066 27.1566 67.3556 27.2311C67.5046 27.3057 67.7044 27.3463 67.9551 27.3463C68.1854 27.3463 68.3751 27.3124 68.5241 27.2481C68.6731 27.1837 68.7849 27.0957 68.856 26.9873C68.9271 26.8789 68.9644 26.757 68.9644 26.6249C68.9644 26.4623 68.8933 26.3302 68.7544 26.2252C68.6155 26.1236 68.4055 26.0593 68.1244 26.0355L67.6977 25.9949C67.3048 25.9644 66.9932 25.8425 66.7595 25.6325C66.5258 25.4225 66.4106 25.1414 66.4106 24.7959C66.4106 24.5317 66.475 24.3014 66.6003 24.1084C66.7256 23.9153 66.9051 23.7629 67.132 23.6511C67.3624 23.5394 67.6265 23.4852 67.928 23.4852C68.2294 23.4852 68.5072 23.5394 68.7375 23.6511C68.9678 23.7629 69.1439 23.9187 69.2692 24.1185C69.3945 24.3184 69.4589 24.5554 69.4589 24.8332H68.7713C68.7713 24.7079 68.7408 24.5927 68.6799 24.4809C68.6189 24.3692 68.5275 24.2811 68.4022 24.21C68.2768 24.1389 68.1176 24.105 67.9246 24.105C67.7315 24.105 67.5859 24.1389 67.4606 24.2032C67.3386 24.2709 67.2472 24.3556 67.1828 24.4606C67.1219 24.5656 67.0914 24.6774 67.0914 24.7993C67.0914 24.9416 67.1456 25.0703 67.254 25.1786C67.3624 25.2904 67.5283 25.3548 67.7552 25.3751L68.1752 25.409C68.4733 25.4327 68.7341 25.4936 68.9508 25.5986C69.171 25.7002 69.3403 25.8391 69.4623 26.0085C69.5842 26.1778 69.6452 26.3844 69.6452 26.6249C69.6452 26.8891 69.574 27.1228 69.4318 27.3226C69.2895 27.5258 69.0931 27.6816 68.8391 27.7934C68.585 27.9052 68.287 27.9627 67.9449 27.9627H67.9517Z" fill="var(--fill-0, #181A29)"/>
<path id="Vector_9" d="M70.2051 24.2235V23.6071H73.4261V24.2235H70.2051ZM71.4616 27.8578V24.1084H72.1594V27.8578H71.4616Z" fill="var(--fill-0, #181A29)"/>
<path id="Vector_10" d="M74.3672 27.8578V23.6071H75.0615V27.8578H74.3672ZM74.943 24.2134V23.6071H76.8803V24.2134H74.943ZM74.943 25.9983V25.3921H76.7719V25.9983H74.943ZM74.943 27.8578V27.2515H76.9345V27.8578H74.943ZM75.258 23.2752L75.9929 22.2896H76.7618L75.9015 23.2752H75.2613H75.258Z" fill="var(--fill-0, #181A29)"/>
<path id="Vector_11" d="M78.084 27.8577V23.58H78.7817V27.8577H78.084ZM78.5548 26.3776V25.7883H79.6623C79.8283 25.7883 79.9739 25.7544 80.0924 25.6867C80.2144 25.6189 80.3058 25.5241 80.3702 25.4056C80.4345 25.287 80.465 25.1448 80.465 24.9856C80.465 24.8264 80.4345 24.6909 80.3702 24.5724C80.3058 24.4538 80.2144 24.359 80.0924 24.2879C79.9705 24.2167 79.8283 24.1829 79.6623 24.1829H78.5548V23.5766H79.5675C79.8926 23.5766 80.1771 23.6274 80.4176 23.7256C80.6581 23.8238 80.8444 23.9729 80.9764 24.1693C81.1085 24.3658 81.1729 24.6232 81.1729 24.9314V25.0262C81.1729 25.3378 81.1052 25.5918 80.9731 25.7883C80.8376 25.9847 80.6513 26.1338 80.4142 26.232C80.1737 26.3302 79.8926 26.3776 79.5675 26.3776H78.5548ZM80.6919 27.8577L79.3405 25.9881H80.1331L81.5251 27.8577H80.6919Z" fill="var(--fill-0, #181A29)"/>
<path id="Vector_12" d="M82.4629 27.8578V23.6071H83.1606V27.8578H82.4629Z" fill="var(--fill-0, #181A29)"/>
<path id="Vector_13" d="M86.4972 27.9627C86.1145 27.9627 85.7826 27.895 85.5049 27.7629C85.2271 27.6308 84.9968 27.4513 84.8139 27.2311C84.631 27.011 84.4955 26.7705 84.4075 26.5165C84.3194 26.2625 84.2754 26.0186 84.2754 25.7849V25.6562C84.2754 25.3988 84.3194 25.1448 84.4109 24.8874C84.5023 24.63 84.6412 24.3963 84.8241 24.1863C85.007 23.9763 85.2407 23.8035 85.515 23.6782C85.7927 23.5495 86.1179 23.4852 86.4905 23.4852C86.863 23.4852 87.1882 23.5495 87.4625 23.6782C87.7369 23.8069 87.9706 23.9763 88.1569 24.1863C88.3431 24.3963 88.482 24.63 88.5734 24.8874C88.6649 25.1448 88.7089 25.3988 88.7089 25.6562V25.7849C88.7089 26.0186 88.6649 26.2625 88.5734 26.5165C88.482 26.7705 88.3499 27.0076 88.1704 27.2311C87.9909 27.4513 87.7606 27.6308 87.4795 27.7629C87.1983 27.895 86.8698 27.9627 86.4905 27.9627H86.4972ZM86.4972 27.3158C86.7309 27.3158 86.9409 27.2718 87.1272 27.1871C87.3135 27.1024 87.4727 26.9839 87.6048 26.8383C87.7369 26.6926 87.8351 26.5233 87.9062 26.3302C87.974 26.1405 88.0078 25.9373 88.0078 25.7239C88.0078 25.5004 87.974 25.2904 87.9028 25.0974C87.8317 24.9043 87.7335 24.735 87.6048 24.5893C87.4761 24.4437 87.3169 24.3319 87.1306 24.2472C86.9443 24.1659 86.7343 24.1253 86.5006 24.1253C86.2669 24.1253 86.0569 24.1659 85.8707 24.2472C85.6844 24.3285 85.5252 24.4437 85.3931 24.5893C85.261 24.735 85.1594 24.9043 85.095 25.0974C85.0273 25.2904 84.9934 25.497 84.9934 25.7239C84.9934 25.9509 85.0273 26.1405 85.095 26.3302C85.1628 26.5199 85.2644 26.6892 85.3931 26.8383C85.5218 26.9873 85.6844 27.1024 85.8707 27.1871C86.0569 27.2718 86.2669 27.3158 86.5006 27.3158H86.4972Z" fill="var(--fill-0, #181A29)"/>
<path id="Vector_14" d="M91.2173 27.9627C90.8515 27.9627 90.5433 27.9018 90.2893 27.7832C90.0353 27.6647 89.8422 27.5021 89.7101 27.2955C89.578 27.0889 89.5137 26.8518 89.5137 26.5876H90.2012C90.2012 26.7096 90.2351 26.8281 90.2994 26.9433C90.3638 27.0584 90.4722 27.1566 90.6212 27.2311C90.7702 27.3057 90.9701 27.3463 91.2207 27.3463C91.451 27.3463 91.6373 27.3124 91.7897 27.2481C91.9387 27.1837 92.0505 27.0957 92.1216 26.9873C92.1928 26.8789 92.23 26.757 92.23 26.6249C92.23 26.4623 92.1589 26.3302 92.02 26.2252C91.8812 26.1236 91.6712 26.0593 91.3901 26.0355L90.9667 25.9949C90.5738 25.9644 90.2622 25.8425 90.0285 25.6325C89.7948 25.4225 89.6796 25.1414 89.6796 24.7959C89.6796 24.5317 89.744 24.3014 89.8693 24.1084C89.9946 23.9153 90.1741 23.7629 90.4011 23.6511C90.6314 23.5394 90.8956 23.4852 91.2004 23.4852C91.5052 23.4852 91.7796 23.5394 92.0099 23.6511C92.2402 23.7629 92.4163 23.9187 92.5416 24.1185C92.6669 24.3184 92.7313 24.5554 92.7313 24.8332H92.0437C92.0437 24.7079 92.0133 24.5927 91.9523 24.4809C91.8913 24.3692 91.7999 24.2811 91.6746 24.21C91.5492 24.1389 91.39 24.105 91.197 24.105C91.0039 24.105 90.8549 24.1389 90.733 24.2032C90.611 24.2676 90.5196 24.3556 90.4552 24.4606C90.3943 24.5656 90.3604 24.6774 90.3604 24.7993C90.3604 24.9416 90.4146 25.0703 90.523 25.1786C90.6314 25.2904 90.7973 25.3548 91.0243 25.3751L91.4442 25.409C91.7423 25.4327 92.0031 25.4936 92.2199 25.5986C92.44 25.7002 92.6094 25.8391 92.7313 26.0085C92.8532 26.1778 92.9142 26.3844 92.9142 26.6249C92.9142 26.8891 92.8431 27.1228 92.7008 27.3226C92.5586 27.5258 92.3621 27.6816 92.1081 27.7934C91.8541 27.9052 91.556 27.9627 91.2139 27.9627H91.2173Z" fill="var(--fill-0, #181A29)"/>
<path id="Vector_15" d="M51.4277 34.8416V30.5639H52.1254V34.8416H51.4277ZM52.0103 33.453V32.8433H52.8943C53.0806 32.8433 53.233 32.8061 53.3583 32.7349C53.4802 32.6638 53.5751 32.5656 53.6394 32.4369C53.7038 32.3082 53.7376 32.1693 53.7376 32.0101C53.7376 31.8509 53.7038 31.7019 53.6394 31.5766C53.5717 31.4513 53.4802 31.3531 53.3583 31.2819C53.2364 31.2108 53.0806 31.1769 52.8943 31.1769H52.0103V30.5673H52.813C53.1652 30.5673 53.4633 30.6249 53.7072 30.74C53.951 30.8552 54.1339 31.0144 54.2592 31.2244C54.3846 31.4344 54.4489 31.6782 54.4489 31.9661V32.0609C54.4489 32.3454 54.3846 32.5893 54.2592 32.7993C54.1339 33.0093 53.9476 33.1719 53.7072 33.2836C53.4633 33.3988 53.1652 33.4564 52.813 33.4564H52.0103V33.453Z" fill="var(--fill-0, #181A29)"/>
<path id="Vector_16" d="M57.1578 34.9467C56.765 34.9467 56.4364 34.8721 56.1722 34.7231C55.9047 34.5741 55.7048 34.3641 55.566 34.0931C55.4271 33.8222 55.3594 33.5038 55.3594 33.1448V30.5944H56.0571V33.2024C56.0571 33.4191 56.1011 33.6122 56.1858 33.7782C56.2705 33.9441 56.3958 34.0728 56.5584 34.1643C56.7209 34.2557 56.9208 34.2997 57.1578 34.2997C57.3949 34.2997 57.5948 34.2557 57.754 34.1677C57.9131 34.0796 58.0385 33.9509 58.1231 33.7849C58.2078 33.619 58.2518 33.4225 58.2518 33.2024V30.5944H58.9495V33.1448C58.9495 33.5072 58.8818 33.8222 58.7463 34.0931C58.6109 34.3641 58.4076 34.5741 58.1435 34.7231C57.8759 34.8721 57.5474 34.9467 57.1578 34.9467ZM56.7683 30.2625L57.5033 29.2803H58.2722L57.4119 30.2625H56.7717H56.7683Z" fill="var(--fill-0, #181A29)"/>
<path id="Vector_17" d="M60.2441 34.8653V30.5639H60.9385V34.8653H60.2441ZM60.8199 32.8569V32.42H61.7852C62.0054 32.42 62.1679 32.3624 62.2729 32.2438C62.3745 32.1253 62.4287 31.9729 62.4287 31.7866C62.4287 31.6003 62.3779 31.4411 62.2729 31.3226C62.1713 31.204 62.0087 31.1465 61.7852 31.1465H60.8199V30.5639H61.7005C62.1747 30.5639 62.5303 30.6621 62.7708 30.862C63.0113 31.0618 63.1332 31.3497 63.1332 31.7222V31.8035C63.1332 32.0677 63.0722 32.2777 62.9503 32.4335C62.8284 32.5893 62.659 32.6977 62.4423 32.762C62.2255 32.8264 61.9783 32.8569 61.7005 32.8569H60.8199ZM60.8199 34.8653V34.2828H61.9444C62.1544 34.2828 62.317 34.2252 62.4321 34.1067C62.5473 33.9915 62.6049 33.8323 62.6049 33.6291C62.6049 33.4259 62.5473 33.2633 62.4355 33.1482C62.3237 33.033 62.1612 32.9754 61.9478 32.9754H60.8233V32.5317H61.8767C62.1544 32.5317 62.4016 32.5656 62.615 32.6333C62.8284 32.7011 62.9977 32.8128 63.1231 32.9686C63.2484 33.1244 63.3093 33.3344 63.3093 33.602V33.6833C63.3093 33.9305 63.2551 34.1439 63.1502 34.32C63.0418 34.4962 62.8826 34.6316 62.6726 34.7231C62.4626 34.8145 62.195 34.8586 61.8767 34.8586H60.8233L60.8199 34.8653Z" fill="var(--fill-0, #181A29)"/>
<path id="Vector_18" d="M64.457 34.8416V30.591H65.1547V34.8416H64.457ZM65.0396 34.8416V34.2184H66.9329V34.8416H65.0396Z" fill="var(--fill-0, #181A29)"/>
<path id="Vector_19" d="M67.8984 34.8416V30.591H68.5962V34.8416H67.8984Z" fill="var(--fill-0, #181A29)"/>
<path id="Vector_20" d="M71.8641 34.9467C71.4746 34.9467 71.1461 34.8789 70.8717 34.7468C70.5974 34.6114 70.3773 34.4352 70.2079 34.2185C70.0386 34.0017 69.9132 33.7612 69.8353 33.5072C69.7541 33.2532 69.7168 33.0059 69.7168 32.7722V32.6435C69.7168 32.3827 69.7574 32.1253 69.8387 31.8679C69.92 31.6105 70.0453 31.3802 70.2147 31.1702C70.384 30.9602 70.6008 30.7909 70.8717 30.6622C71.1427 30.5335 71.4611 30.4691 71.8303 30.4691C72.1994 30.4691 72.5449 30.5369 72.826 30.6723C73.1071 30.8078 73.3273 30.9975 73.4933 31.2413C73.6592 31.4852 73.7574 31.7697 73.7879 32.1016H73.0834C73.0529 31.8849 72.9784 31.702 72.8667 31.5563C72.7515 31.4107 72.6059 31.3023 72.4298 31.2278C72.2536 31.1533 72.0538 31.116 71.8336 31.116C71.6135 31.116 71.4001 31.1567 71.224 31.238C71.0479 31.3192 70.9022 31.431 70.7837 31.5767C70.6651 31.7223 70.5771 31.8883 70.5195 32.0813C70.4619 32.2744 70.4281 32.4844 70.4281 32.7147C70.4281 32.9314 70.4585 33.138 70.5195 33.3277C70.5805 33.5174 70.6719 33.6901 70.7905 33.8358C70.9124 33.9848 71.0614 34.0965 71.2409 34.1778C71.4204 34.2591 71.6304 34.2998 71.8675 34.2998C72.2096 34.2998 72.4975 34.2151 72.7278 34.0457C72.9615 33.8764 73.1038 33.6359 73.1512 33.3209H73.8624C73.8218 33.619 73.7236 33.8933 73.561 34.1406C73.3984 34.3878 73.1749 34.5843 72.8904 34.7299C72.6059 34.8756 72.2638 34.9467 71.8641 34.9467Z" fill="var(--fill-0, #181A29)"/>
<path id="Vector_21" d="M76.8064 34.9467C76.4236 34.9467 76.0917 34.8789 75.814 34.7468C75.5362 34.6114 75.3059 34.4352 75.123 34.2151C74.9401 33.9949 74.8047 33.7579 74.72 33.5004C74.6319 33.2464 74.5879 33.0026 74.5879 32.7689V32.6402C74.5879 32.3827 74.6319 32.1287 74.7234 31.8713C74.8148 31.6139 74.9537 31.3802 75.1366 31.1702C75.3195 30.9602 75.5532 30.7875 75.8309 30.6622C76.1086 30.5335 76.4338 30.4691 76.8064 30.4691C77.1789 30.4691 77.5041 30.5335 77.7784 30.6622C78.0528 30.7909 78.2865 30.9602 78.4693 31.1702C78.6556 31.3802 78.7945 31.6173 78.8859 31.8713C78.9774 32.1287 79.0214 32.3827 79.0214 32.6402V32.7689C79.0214 33.0026 78.9774 33.2464 78.8893 33.5004C78.8013 33.7545 78.6658 33.9916 78.4829 34.2151C78.3034 34.4352 78.0731 34.6148 77.792 34.7468C77.5142 34.8823 77.1823 34.9467 76.803 34.9467H76.8064ZM76.8064 34.3032C77.0401 34.3032 77.25 34.2625 77.4363 34.1745C77.6226 34.0898 77.7818 33.9712 77.9139 33.8256C78.046 33.6766 78.1476 33.5106 78.2153 33.3175C78.2831 33.1279 78.3169 32.9247 78.3169 32.7113C78.3169 32.4844 78.2831 32.2778 78.2119 32.0847C78.1408 31.8916 78.0426 31.7257 77.9139 31.5767C77.7852 31.431 77.626 31.3192 77.4397 31.238C77.2534 31.1567 77.0434 31.116 76.8097 31.116C76.576 31.116 76.366 31.1567 76.1798 31.238C75.9935 31.3192 75.8343 31.4344 75.7022 31.5767C75.5701 31.7223 75.4685 31.8916 75.4008 32.0847C75.333 32.2778 75.2992 32.4844 75.2992 32.7113C75.2992 32.9247 75.333 33.1279 75.4008 33.3175C75.4685 33.5072 75.5701 33.6766 75.7022 33.8256C75.8343 33.9746 75.9935 34.0898 76.1798 34.1745C76.366 34.2591 76.576 34.3032 76.8097 34.3032H76.8064Z" fill="var(--fill-0, #181A29)"/>
<path id="Vector_22" d="M81.5298 34.9467C81.164 34.9467 80.8558 34.8891 80.6018 34.7706C80.3478 34.652 80.1547 34.4894 80.0226 34.2828C79.8905 34.0762 79.8262 33.8391 79.8262 33.575H80.5137C80.5137 33.6969 80.5476 33.8154 80.6119 33.9306C80.6763 34.0457 80.7847 34.144 80.9337 34.2185C81.0827 34.293 81.2826 34.3303 81.5332 34.3303C81.7635 34.3303 81.9498 34.2964 82.1022 34.232C82.2512 34.1677 82.363 34.0796 82.4341 33.9712C82.5053 33.8628 82.5425 33.7409 82.5425 33.6088C82.5425 33.4463 82.4714 33.3142 82.3325 33.2092C82.1937 33.1076 81.9837 33.0432 81.7026 33.0195L81.2792 32.9789C80.8863 32.9484 80.5747 32.8264 80.341 32.6164C80.1073 32.4065 79.9921 32.1253 79.9921 31.7799C79.9921 31.5157 80.0565 31.2854 80.1818 31.0923C80.3071 30.8993 80.4866 30.7468 80.7136 30.6351C80.9439 30.5233 81.2081 30.4691 81.5129 30.4691C81.8177 30.4691 82.0921 30.5233 82.3224 30.6351C82.5527 30.7468 82.7288 30.9026 82.8541 31.1025C82.9794 31.3023 83.0438 31.5394 83.0438 31.8171H82.3562C82.3562 31.6918 82.3257 31.5767 82.2648 31.4649C82.2038 31.3531 82.1124 31.2651 81.9871 31.1939C81.8617 31.1228 81.7025 31.0889 81.5095 31.0889C81.3164 31.0889 81.1674 31.1228 81.0455 31.1872C80.9235 31.2515 80.8321 31.3396 80.7677 31.4446C80.7068 31.5496 80.6729 31.6613 80.6729 31.7833C80.6729 31.9255 80.7271 32.0542 80.8355 32.166C80.9439 32.2778 81.1098 32.3421 81.3368 32.3624L81.7567 32.3963C82.0548 32.42 82.3156 32.481 82.5324 32.586C82.7525 32.6876 82.9219 32.8264 83.0438 32.9958C83.1657 33.1651 83.2267 33.3717 83.2267 33.6122C83.2267 33.8764 83.1556 34.1101 83.0133 34.3099C82.8711 34.5131 82.6746 34.6689 82.4206 34.7807C82.1666 34.8925 81.8685 34.9501 81.5264 34.9501L81.5298 34.9467Z" fill="var(--fill-0, #181A29)"/>
<path id="Vector_23" d="M51.2339 16.5622H58.8105C60.2195 16.5622 60.8731 16.2371 60.8731 15.3158C60.8731 14.3133 59.9756 13.9068 58.5869 13.663L55.9519 13.1922C53.073 12.6807 51.3964 11.58 51.3964 8.96525C51.3964 6.35052 53.2355 5.02283 56.6056 5.02283H62.7529L63.1627 7.77981H56.7275C55.3185 7.77981 54.6648 8.08464 54.6648 8.90428C54.6648 9.84247 55.5624 10.2117 56.951 10.4555L59.6674 10.9466C62.6073 11.4784 64.1416 12.5588 64.1416 15.2548C64.1416 17.9509 62.3024 19.3192 58.9324 19.3192H51.6606L51.2305 16.5622H51.2339Z" fill="var(--fill-0, #181A29)"/>
<path id="Vector_24" d="M75.8447 15.9526H69.2876L68.0005 19.3226H64.5898L70.2664 5.02625H74.9031L80.539 19.3226H77.1284L75.8413 15.9526H75.8447ZM74.8049 13.1922L72.7016 7.65791H72.4781L70.3544 13.1922H74.8083H74.8049Z" fill="var(--fill-0, #181A29)"/>
<path id="Vector_25" d="M91.57 13.0702C91.57 17.1346 89.1178 19.3192 85.3414 19.3192H81.277L80.8672 16.5622H85.3414C87.2414 16.5622 88.3828 15.6037 88.3828 13.0702V7.77981H81.7444V5.02283H91.57V13.0702Z" fill="var(--fill-0, #181A29)"/>
</g>
</svg>
