<svg preserveAspectRatio="none" width="100%" height="100%" overflow="visible" style="display: block;" viewBox="0 0 142.543 25.4835" fill="none" xmlns="http://www.w3.org/2000/svg">
<g id="Group">
<path id="Vector" d="M0 13.1484C0 8.02399 2.73753 5.42201 8.29509 5.42201C13.8527 5.42201 16.5637 8.02399 16.5637 13.1484C16.5637 18.2728 13.8261 20.8747 8.29509 20.8747C2.76405 20.8747 0 18.2728 0 13.1484ZM12.3616 13.1484C12.3616 10.3283 11.1416 9.02883 8.29509 9.02883C5.44854 9.02883 4.20206 10.3313 4.20206 13.1484C4.20206 15.9655 5.44854 17.2679 8.29509 17.2679C11.1416 17.2679 12.3616 15.9655 12.3616 13.1484Z" fill="var(--fill-0, white)"/>
<path id="Vector_2" d="M34.9985 13.2014C34.9985 18.2698 32.6941 20.8747 26.5679 20.8747C23.8303 20.8747 21.3904 20.3325 19.1951 19.2481V2.83869e-07H23.3147V7.5643C24.7232 6.07324 26.4323 5.42201 28.6276 5.42201C32.7207 5.42201 34.9985 8.15954 34.9985 13.2014ZM30.7964 13.2279C30.7964 10.5169 29.8741 9.08187 27.2191 9.08187C25.3744 9.08187 24.1839 10.3018 23.3147 11.6308V16.7817C24.4816 17.0793 25.7015 17.2414 26.8124 17.2974C29.6325 17.2974 30.7964 16.0244 30.7964 13.2309V13.2279Z" fill="var(--fill-0, white)"/>
<path id="Vector_3" d="M48.9867 9.16143H46.2492C43.9448 9.16143 42.7249 10.3549 41.8585 11.8194V20.6036H37.739V5.69311H41.1542L41.723 7.88844C43.052 6.23531 44.596 5.55756 46.7649 5.55756H48.4445L48.9867 9.16438V9.16143Z" fill="var(--fill-0, white)"/>
<path id="Vector_4" d="M64.1418 11.8724V20.6007H60.7265L60.1843 18.4584C58.9113 19.9229 57.1492 20.8718 54.2466 20.8718C50.8314 20.8718 49.3138 19.4898 49.3138 16.5342C49.3138 13.5786 51.0759 12.5502 54.5737 12.1701L60.0223 11.5748V11.4127C60.0223 9.7331 59.1265 9.16438 57.2582 9.16438H50.6428L51.185 5.69311H57.4733C62.2176 5.69311 64.1418 7.53777 64.1418 11.8724ZM60.0223 15.3437V14.2858L55.7937 14.828C54.0846 15.0461 53.5158 15.4233 53.5158 16.2926C53.5158 17.2679 53.9225 17.7836 55.4136 17.7836C57.3378 17.7836 58.8848 16.9703 60.0223 15.3437Z" fill="var(--fill-0, white)"/>
<path id="Vector_5" d="M66.6642 17.1589H75.419C76.2588 17.1589 76.8276 16.8348 76.8276 16.1275C76.8276 15.3673 76.3119 15.0962 75.1744 14.9606L71.6236 14.5009C68.6415 14.1208 66.8793 12.7653 66.8793 9.97473C66.8793 7.18417 68.8036 5.69017 72.3279 5.69017H79.456L79.8892 9.13197H72.1894C71.2936 9.13197 70.8339 9.40307 70.8339 9.99831C70.8339 10.6495 71.267 10.9472 72.3249 11.0827L76.2028 11.5719C79.2675 11.952 80.9206 13.1985 80.9206 16.045C80.9206 18.8916 78.9964 20.6007 75.472 20.6007H67.1239L66.6642 17.1589Z" fill="var(--fill-0, white)"/>
<path id="Vector_6" d="M82.7122 18.6234C82.7122 17.2414 83.5255 16.4016 85.2611 16.4016C86.9968 16.4016 87.8101 17.2414 87.8101 18.6234C87.8101 20.0055 86.9968 20.8747 85.2611 20.8747C83.5255 20.8747 82.7122 20.0349 82.7122 18.6234Z" fill="var(--fill-0, white)"/>
<path id="Vector_7" d="M105.187 5.58408V19.0036C105.187 23.5858 102.396 25.4835 97.4076 25.4835H92.6899L92.3657 23.5327H97.4076C100.958 23.5327 102.965 22.3128 102.965 19.0065V17.4889C101.392 19.3601 99.2788 20.0379 96.6208 20.0379C92.3657 20.0379 90.306 17.5155 90.306 12.6916C90.306 7.86781 92.7459 5.42791 97.4076 5.42791C99.5764 5.42791 101.474 5.80804 103.263 6.51231L103.858 5.58998H105.187V5.58408ZM102.962 15.0166V8.32161C101.309 7.67038 99.5204 7.37276 97.8113 7.37276C94.287 7.37276 92.5809 9.27046 92.5809 12.6857C92.5809 16.101 93.8833 18.0518 97.2426 18.0518C99.7915 18.0518 101.716 17.1029 102.962 15.0166Z" fill="var(--fill-0, white)"/>
<path id="Vector_8" d="M108.873 13.1484C108.873 8.02399 111.637 5.42201 116.871 5.42201C122.104 5.42201 124.815 8.05051 124.815 13.1484C124.815 18.2462 122.051 20.8747 116.871 20.8747C111.691 20.8747 108.873 18.2728 108.873 13.1484ZM122.537 13.1484C122.537 9.27046 120.613 7.40223 116.871 7.40223C113.129 7.40223 111.151 9.27341 111.151 13.1484C111.151 17.0233 113.075 18.8945 116.871 18.8945C120.666 18.8945 122.537 17.0233 122.537 13.1484Z" fill="var(--fill-0, white)"/>
<path id="Vector_9" d="M142.543 5.69311L136.496 20.6036H132.618L126.545 5.69311H128.958L134.053 18.65H135.055L140.18 5.69311H142.537H142.543Z" fill="var(--fill-0, white)"/>
</g>
</svg>
