<svg preserveAspectRatio="none" width="100%" height="100%" overflow="visible" style="display: block;" viewBox="0 0 138.071 40" fill="none" xmlns="http://www.w3.org/2000/svg">
<g id="Group 19">
<path id="Vector" d="M38.5183 0H11.5573C5.1741 0 0 5.1741 0 11.5573V31.2787H8.09898V40H28.4398C34.8229 40 39.997 34.8259 39.997 28.4427V1.4817C39.997 0.663802 39.3332 0 38.5153 0H38.5183ZM26.8069 25.7253C26.8069 26.3209 26.3239 26.8069 25.7253 26.8069H13.1931V14.2747C13.1931 13.6791 13.6761 13.1931 14.2747 13.1931H26.8069V25.7253Z" fill="var(--fill-0, #CE5A28)"/>
<path id="Vector_2" d="M31.904 6.59653H11.5573C8.81612 6.59653 6.59653 8.81908 6.59653 11.5573V26.8069H0V33.4035H6.59653V39.9674H13.1931V33.4035H28.4427C31.1839 33.4035 33.4035 31.1809 33.4035 28.4427V8.09601C33.4035 7.26922 32.7337 6.59653 31.9069 6.59653H31.904ZM26.8069 25.7253C26.8069 26.3209 26.3239 26.8069 25.7253 26.8069H13.1931V14.2747C13.1931 13.6791 13.6761 13.1931 14.2747 13.1931H26.8069V25.7253Z" fill="var(--fill-0, #FF7C2F)"/>
<path id="Vector_3" d="M25.5977 33.3857V26.8069H13.1929V33.3857H25.5977Z" fill="var(--fill-0, #FF7C2F)"/>
<path id="Vector_4" d="M49.3135 26.1609H59.8662C61.828 26.1609 62.7407 25.7046 62.7407 24.4244C62.7407 23.0316 61.4901 22.4626 59.555 22.1188L55.8863 21.4639C51.8769 20.7527 49.5417 19.2177 49.5417 15.5757C49.5417 11.9336 52.1021 10.0845 56.7961 10.0845H65.3574L65.9263 13.925H56.965C55.0032 13.925 54.0905 14.3518 54.0905 15.4897C54.0905 16.7995 55.3411 17.3092 57.2762 17.65L61.0604 18.3316C65.1559 19.0725 67.2895 20.5779 67.2895 24.3325C67.2895 28.0871 64.7291 29.9926 60.0351 29.9926H49.9092L49.3105 26.152L49.3135 26.1609Z" fill="var(--fill-0, #181A29)"/>
<path id="Vector_5" d="M70.0547 10.0874H74.4939V30.0015H70.0547V10.0874Z" fill="var(--fill-0, #181A29)"/>
<path id="Vector_6" d="M97.6478 20.0445C97.6478 26.8158 94.2903 30.0015 87.1515 30.0015H78.6465V10.0874H87.1515C94.2903 10.0874 97.6478 13.2731 97.6478 20.0445ZM93.096 20.0445C93.096 15.8927 91.1906 13.928 87.1515 13.928H83.0827V26.1609H87.1515C91.1906 26.1609 93.096 24.1992 93.096 20.0445Z" fill="var(--fill-0, #181A29)"/>
<path id="Vector_7" d="M100.635 10.0874H116.282L116.851 13.928H105.074V18.0827H114.518V21.781H105.074V26.1609H117.135L116.566 30.0015H100.635V10.0874Z" fill="var(--fill-0, #181A29)"/>
<path id="Vector_8" d="M132.725 29.9985L128.885 24.4244H124.475V29.9985H120.039V10.0874H129.027C134.972 10.0874 137.873 12.9027 137.873 17.2559C137.873 20.2993 136.45 22.6048 133.549 23.7132L138.071 29.9985H132.722H132.725ZM124.475 20.5542H128.743C132.07 20.5542 133.324 19.4459 133.324 17.2559C133.324 15.0659 132.073 13.928 128.743 13.928H124.475V20.5571V20.5542Z" fill="var(--fill-0, #181A29)"/>
</g>
</svg>
