<svg preserveAspectRatio="none" width="100%" height="100%" overflow="visible" style="display: block;" viewBox="0 0 131.446 20.4844" fill="none" xmlns="http://www.w3.org/2000/svg">
<g id="Group">
<path id="Vector" d="M0 16.8381H8.59108C9.4152 16.8381 9.97329 16.52 9.97329 15.826C9.97329 15.0799 9.46725 14.8139 8.35108 14.6809L4.86664 14.2298C1.9403 13.8568 0.211089 12.5266 0.211089 9.78822C0.211089 7.04984 2.09934 5.58377 5.55775 5.58377H12.5526L12.9777 8.96121H5.42184C4.54278 8.96121 4.09168 9.22725 4.09168 9.81136C4.09168 10.4504 4.51675 10.7425 5.55486 10.8755L9.36026 11.3555C12.3676 11.7285 13.9898 12.9517 13.9898 15.745C13.9898 18.5383 12.1015 20.2155 8.64313 20.2155H0.451096L0 16.8381Z" fill="var(--fill-0, #181A29)"/>
<path id="Vector_2" d="M15.6698 12.9025C15.6698 7.87395 18.3562 5.32063 23.8098 5.32063C29.2635 5.32063 31.9238 7.87395 31.9238 12.9025C31.9238 17.9311 29.2374 20.4844 23.8098 20.4844C18.3822 20.4844 15.6698 17.9311 15.6698 12.9025ZM27.8003 12.9025C27.8003 10.1352 26.6031 8.86001 23.8098 8.86001C21.0165 8.86001 19.7933 10.1381 19.7933 12.9025C19.7933 15.6669 21.0165 16.9451 23.8098 16.9451C26.6031 16.9451 27.8003 15.6669 27.8003 12.9025Z" fill="var(--fill-0, #181A29)"/>
<path id="Vector_3" d="M34.5841 0H38.6266V20.2184H34.5841V0Z" fill="var(--fill-0, #181A29)"/>
<path id="Vector_4" d="M55.5196 11.6504V20.2155H52.1682L51.6361 18.1133C50.3869 19.5504 48.6577 20.4815 45.8095 20.4815C42.4581 20.4815 40.9688 19.1254 40.9688 16.225C40.9688 13.3247 42.6981 12.3155 46.1304 11.9425L51.4771 11.3584V11.1993C51.4771 9.55111 50.598 8.99013 48.7647 8.99013H42.273L42.805 5.58377H48.9758C53.6314 5.58377 55.5196 7.39394 55.5196 11.6504ZM51.4771 15.0568V14.0187L47.3276 14.5508C45.6533 14.7647 45.0923 15.1349 45.0923 15.9879C45.0923 16.945 45.4914 17.4511 46.9546 17.4511C48.8428 17.4511 50.3609 16.653 51.4771 15.0568Z" fill="var(--fill-0, #181A29)"/>
<path id="Vector_5" d="M69.8072 8.99013H67.1209C64.8596 8.99013 63.6625 10.1612 62.8124 11.5984V20.2184H58.7698V5.58666H62.1212L62.6793 7.74094C63.9835 6.11872 65.4987 5.45365 67.6269 5.45365H69.2752L69.8072 8.99302V8.99013Z" fill="var(--fill-0, #181A29)"/>
<path id="Vector_6" d="M88.4555 15.1898C88.4555 18.2232 86.2202 20.2184 81.5647 20.2184H72.4676V1.59619H80.3415C84.9971 1.59619 87.0993 3.27334 87.0993 6.25174C87.0993 8.19493 86.0352 9.6581 83.959 10.4013C86.9113 10.8813 88.4555 12.4775 88.4555 15.1898ZM74.7288 3.53648V9.73328H80.7666C83.0539 9.73328 84.7831 8.40313 84.7831 6.43391C84.7831 4.4647 83.4269 3.53359 80.3415 3.53359H74.7288V3.53648ZM86.1393 14.9498C86.1393 12.7695 84.5691 11.5435 81.1396 11.5435H74.7288V18.2723H81.5647C84.624 18.2723 86.1393 17.0752 86.1393 14.9469V14.9498Z" fill="var(--fill-0, #181A29)"/>
<path id="Vector_7" d="M108.301 7.63395C108.301 11.3324 105.881 13.6717 100.904 13.6717H94.6262V20.2155H92.365V1.59619H100.904C105.878 1.59619 108.301 3.96445 108.301 7.63395ZM105.988 7.63395C105.988 5.10665 104.417 3.59143 100.774 3.59143H94.6291V11.7054H100.774C104.417 11.7054 105.988 10.1902 105.988 7.63395Z" fill="var(--fill-0, #181A29)"/>
<path id="Vector_8" d="M131.446 1.59619V20.2184H129.317V5.21364L122.455 13.6457H120.885L114.021 5.21364V20.2184H111.892V1.59619H113.702L121.683 11.4914L129.664 1.59619H131.446Z" fill="var(--fill-0, #181A29)"/>
</g>
</svg>
